<svg width="743" height="1008" viewBox="0 0 743 1008" fill="none" xmlns="http://www.w3.org/2000/svg">
<g clip-path="url(#clip0_10_10)" filter="url(#filter0_d_10_10)">
<path d="M460.25 875H738.37C738.37 908.152 725.2 939.946 701.758 963.388C678.316 986.83 646.522 1000 613.37 1000H460.25V875Z" fill="white"/>
<path d="M310.25 0L310.25 1000H435.25L435.25 0H310.25Z" fill="white"/>
<path d="M129 718.75C129.002 677.311 145.465 637.57 174.767 608.268C204.069 578.966 243.811 562.503 285.25 562.5V437.5C243.81 437.5 204.067 421.038 174.764 391.735C145.462 362.433 129 322.69 129 281.25C129 239.81 145.462 200.067 174.764 170.765C204.067 141.462 243.81 125 285.25 125V0C129.92 0 3.99975 125.92 3.99975 281.25C3.96178 323.203 13.3286 364.631 31.4112 402.487C49.4939 440.343 75.8324 473.664 108.49 500C75.8324 526.336 49.4939 559.657 31.4112 597.513C13.3286 635.369 3.96178 676.797 3.99975 718.75C3.99975 874.08 129.92 1000 285.25 1000V875C243.811 874.997 204.069 858.534 174.767 829.232C145.465 799.93 129.002 760.189 129 718.75Z" fill="white"/>
</g>
<defs>
<filter id="filter0_d_10_10" x="0" y="0" width="742.37" height="1008" filterUnits="userSpaceOnUse" color-interpolation-filters="sRGB">
<feFlood flood-opacity="0" result="BackgroundImageFix"/>
<feColorMatrix in="SourceAlpha" type="matrix" values="0 0 0 0 0 0 0 0 0 0 0 0 0 0 0 0 0 0 127 0" result="hardAlpha"/>
<feOffset dy="4"/>
<feGaussianBlur stdDeviation="2"/>
<feComposite in2="hardAlpha" operator="out"/>
<feColorMatrix type="matrix" values="0 0 0 0 0 0 0 0 0 0 0 0 0 0 0 0 0 0 0.25 0"/>
<feBlend mode="normal" in2="BackgroundImageFix" result="effect1_dropShadow_10_10"/>
<feBlend mode="normal" in="SourceGraphic" in2="effect1_dropShadow_10_10" result="shape"/>
</filter>
<clipPath id="clip0_10_10">
<rect width="734.37" height="1000" fill="white" transform="translate(4)"/>
</clipPath>
</defs>
</svg>
